<svg width="32" height="32" viewBox="0 0 128 128" xmlns="http://www.w3.org/2000/svg">
  <rect x="4" y="4" width="120" height="120" rx="27" fill="#3a3d8f"/>
  <path d="M40 30h30l20 20v48a6 6 0 0 1-6 6H40a6 6 0 0 1-6-6V36a6 6 0 0 1 6-6z" fill="#fdfdff" opacity="0.96"/>
  <path d="M70 30l20 20H74a4 4 0 0 1-4-4V30z" fill="#c9caf0"/>
  <path d="M44 84c6-14 10-20 14-20 5 0 3 14 7 14 5 0 7-22 12-22 4 0 3 12 6 12 3 0 6-5 9-8" stroke="#e4b34a" stroke-width="5.5" stroke-linecap="round" stroke-linejoin="round" fill="none"/>
</svg>
